<svg height="1262" width="720" xmlns="http://www.w3.org/2000/svg">
<rect height="1262" fill="#555" width="720"></rect>
<text fill="#7f7" font-family="Courier New" font-size="12" xml:space="preserve">
<tspan x="10" y="26">11 megabytes installed</tspan>
<tspan x="10" y="42"></tspan>
<tspan x="10" y="58">node_modules</tspan>
<tspan x="10" y="74">└─┬ electron-compile@6.4.0 </tspan>
<tspan x="10" y="90">  ├─┬ @paulcbetts/mime-types@2.1.10 </tspan>
<tspan x="10" y="106">  │ └── @paulcbetts/mime-db@1.22.4 </tspan>
<tspan x="10" y="122">  ├── @types/node@7.0.13 </tspan>
<tspan x="10" y="138">  ├── btoa@1.1.2 </tspan>
<tspan x="10" y="154">  ├─┬ debug@2.6.4 </tspan>
<tspan x="10" y="170">  │ └── ms@0.7.3 </tspan>
<tspan x="10" y="186">  ├─┬ lru-cache@4.0.2 </tspan>
<tspan x="10" y="202">  │ ├── pseudomap@1.0.2 </tspan>
<tspan x="10" y="218">  │ └── yallist@2.1.2 </tspan>
<tspan x="10" y="234">  ├─┬ mkdirp@0.5.1 </tspan>
<tspan x="10" y="250">  │ └── minimist@0.0.8 </tspan>
<tspan x="10" y="266">  ├── pify@2.3.0 </tspan>
<tspan x="10" y="282">  ├─┬ rimraf@2.6.1 </tspan>
<tspan x="10" y="298">  │ └─┬ glob@7.1.1 </tspan>
<tspan x="10" y="314">  │   ├── fs.realpath@1.0.0 </tspan>
<tspan x="10" y="330">  │   ├─┬ inflight@1.0.6 </tspan>
<tspan x="10" y="346">  │   │ └── wrappy@1.0.2 </tspan>
<tspan x="10" y="362">  │   ├── inherits@2.0.3 </tspan>
<tspan x="10" y="378">  │   ├─┬ minimatch@3.0.3 </tspan>
<tspan x="10" y="394">  │   │ └─┬ brace-expansion@1.1.7 </tspan>
<tspan x="10" y="410">  │   │   ├── balanced-match@0.4.2 </tspan>
<tspan x="10" y="426">  │   │   └── concat-map@0.0.1 </tspan>
<tspan x="10" y="442">  │   ├── once@1.4.0 </tspan>
<tspan x="10" y="458">  │   └── path-is-absolute@1.0.1 </tspan>
<tspan x="10" y="474">  ├─┬ rxjs@5.3.0 </tspan>
<tspan x="10" y="490">  │ └── symbol-observable@1.0.4 </tspan>
<tspan x="10" y="506">  ├─┬ spawn-rx@2.0.10 </tspan>
<tspan x="10" y="522">  │ └── lodash.assign@4.2.0 </tspan>
<tspan x="10" y="538">  └─┬ yargs@4.8.1 </tspan>
<tspan x="10" y="554">    ├─┬ cliui@3.2.0 </tspan>
<tspan x="10" y="570">    │ ├─┬ strip-ansi@3.0.1 </tspan>
<tspan x="10" y="586">    │ │ └── ansi-regex@2.1.1 </tspan>
<tspan x="10" y="602">    │ └── wrap-ansi@2.1.0 </tspan>
<tspan x="10" y="618">    ├── decamelize@1.2.0 </tspan>
<tspan x="10" y="634">    ├── get-caller-file@1.0.2 </tspan>
<tspan x="10" y="650">    ├─┬ os-locale@1.4.0 </tspan>
<tspan x="10" y="666">    │ └─┬ lcid@1.0.0 </tspan>
<tspan x="10" y="682">    │   └── invert-kv@1.0.0 </tspan>
<tspan x="10" y="698">    ├─┬ read-pkg-up@1.0.1 </tspan>
<tspan x="10" y="714">    │ ├─┬ find-up@1.1.2 </tspan>
<tspan x="10" y="730">    │ │ ├── path-exists@2.1.0 </tspan>
<tspan x="10" y="746">    │ │ └─┬ pinkie-promise@2.0.1 </tspan>
<tspan x="10" y="762">    │ │   └── pinkie@2.0.4 </tspan>
<tspan x="10" y="778">    │ └─┬ read-pkg@1.1.0 </tspan>
<tspan x="10" y="794">    │   ├─┬ load-json-file@1.1.0 </tspan>
<tspan x="10" y="810">    │   │ ├── graceful-fs@4.1.11 </tspan>
<tspan x="10" y="826">    │   │ ├─┬ parse-json@2.2.0 </tspan>
<tspan x="10" y="842">    │   │ │ └─┬ error-ex@1.3.1 </tspan>
<tspan x="10" y="858">    │   │ │   └── is-arrayish@0.2.1 </tspan>
<tspan x="10" y="874">    │   │ └─┬ strip-bom@2.0.0 </tspan>
<tspan x="10" y="890">    │   │   └── is-utf8@0.2.1 </tspan>
<tspan x="10" y="906">    │   ├─┬ normalize-package-data@2.3.6 </tspan>
<tspan x="10" y="922">    │   │ ├── hosted-git-info@2.4.2 </tspan>
<tspan x="10" y="938">    │   │ ├─┬ is-builtin-module@1.0.0 </tspan>
<tspan x="10" y="954">    │   │ │ └── builtin-modules@1.1.1 </tspan>
<tspan x="10" y="970">    │   │ ├── semver@5.3.0 </tspan>
<tspan x="10" y="986">    │   │ └─┬ validate-npm-package-license@3.0.1 </tspan>
<tspan x="10" y="1002">    │   │   ├─┬ spdx-correct@1.0.2 </tspan>
<tspan x="10" y="1018">    │   │   │ └── spdx-license-ids@1.2.2 </tspan>
<tspan x="10" y="1034">    │   │   └── spdx-expression-parse@1.0.4 </tspan>
<tspan x="10" y="1050">    │   └── path-type@1.1.0 </tspan>
<tspan x="10" y="1066">    ├── require-directory@2.1.1 </tspan>
<tspan x="10" y="1082">    ├── require-main-filename@1.0.1 </tspan>
<tspan x="10" y="1098">    ├── set-blocking@2.0.0 </tspan>
<tspan x="10" y="1114">    ├─┬ string-width@1.0.2 </tspan>
<tspan x="10" y="1130">    │ ├── code-point-at@1.1.0 </tspan>
<tspan x="10" y="1146">    │ └─┬ is-fullwidth-code-point@1.0.0 </tspan>
<tspan x="10" y="1162">    │   └── number-is-nan@1.0.1 </tspan>
<tspan x="10" y="1178">    ├── which-module@1.0.0 </tspan>
<tspan x="10" y="1194">    ├── window-size@0.2.0 </tspan>
<tspan x="10" y="1210">    ├── y18n@3.2.1 </tspan>
<tspan x="10" y="1226">    └─┬ yargs-parser@2.4.1 </tspan>
<tspan x="10" y="1242">      └── camelcase@3.0.0</tspan>
</text>
</svg>
